<?xml version="1.0" encoding="utf-8"?>
<!-- Generator: Adobe Illustrator 18.0.0, SVG Export Plug-In . SVG Version: 6.00 Build 0)  -->
<!DOCTYPE svg PUBLIC "-//W3C//DTD SVG 1.1//EN" "http://www.w3.org/Graphics/SVG/1.1/DTD/svg11.dtd">
<svg version="1.1" id="Layer_1" xmlns="http://www.w3.org/2000/svg" xmlns:xlink="http://www.w3.org/1999/xlink" x="0px" y="0px"
	 width="20px" height="20px" viewBox="0 0 20 20" style="enable-background:new 0 0 20 20;" xml:space="preserve">
<g id="layer1">
	<path id="path2417" style="fill:#C9456F;" d="M9.212,18.121c-0.43-0.482-1.505-1.423-2.389-2.09
		c-2.617-1.976-2.973-2.262-4.036-3.241C0.829,10.987-0.003,9.175,0,6.718c0.001-1.199,0.083-1.662,0.419-2.369
		c0.57-1.2,1.409-2.091,2.483-2.636c0.76-0.386,1.135-0.558,2.405-0.565c1.328-0.007,1.607,0.147,2.389,0.577
		c0.951,0.522,1.929,1.639,2.132,2.432l0.125,0.49l0.308-0.675c1.741-3.812,7.3-3.755,9.234,0.095
		c0.614,1.221,0.681,3.829,0.137,5.297c-0.71,1.916-2.043,3.377-5.125,5.615c-2.021,1.468-4.309,3.689-4.468,4.001
		C9.853,19.341,10.029,19.036,9.212,18.121z"/>
	<g id="g2221" transform="translate(129.28571,-64.285714)">
	</g>
</g>
</svg>
