<svg>

	<defs>

		<g id="icon-close">

			<path style="fill-rule:evenodd;clip-rule:evenodd;fill:#929487;" d="M13.187,9.953l5.498,5.498c0.357,0.357,0.357,0.936,0,1.294
				l-1.94,1.94c-0.357,0.357-0.936,0.357-1.294,0l-5.498-5.498l-5.498,5.498c-0.357,0.357-0.936,0.357-1.294,0l-1.94-1.94
				c-0.357-0.357-0.357-0.936,0-1.294l5.498-5.498L1.22,4.455c-0.357-0.357-0.357-0.936,0-1.294l1.94-1.94
				c0.357-0.357,0.936-0.357,1.294,0l5.498,5.498l5.498-5.498c0.357-0.357,0.936-0.357,1.294,0l1.94,1.94
				c0.357,0.357,0.357,0.936,0,1.294L13.187,9.953z"/>

		<g>

	</defs>

</svg>